<?xml version="1.0" encoding="utf-8"?>
<!-- Generator: Adobe Illustrator 26.0.1, SVG Export Plug-In . SVG Version: 6.00 Build 0)  -->
<svg version="1.1" id="Layer_1" xmlns="http://www.w3.org/2000/svg" xmlns:xlink="http://www.w3.org/1999/xlink" x="0px" y="0px"
	 viewBox="0 0 111.8 122.9" style="enable-background:new 0 0 111.8 122.9;" xml:space="preserve">
<style type="text/css">
	.st0{fill-rule:evenodd;clip-rule:evenodd;fill:#FFFFFF;}
</style>
<path class="st0" d="M55.7,0c20.8,13.2,39.7,19.5,55.8,18c2.8,57.1-18.3,90.8-55.6,104.9C19.9,109.7-1.5,77.4,0.1,17.1
	C19.1,18.1,37.7,14,55.7,0z M39.9,64.5c-1.4-2.2-4-5.3-4-7.9c0.1-1.7,1.2-3.3,2.8-3.8c-0.1-2.2-0.2-4.5-0.2-6.7c0-1.3,0-2.6,0.1-3.9
	c0.1-0.7,0.2-1.4,0.5-2c1-3.4,3.2-6.2,6.3-8c1.1-0.7,2.2-1.2,3.4-1.6c2.2-0.8,1.1-4.2,3.5-4.2c5.5-0.1,14.6,4.7,18.1,8.5
	c2.2,2.3,3.5,5.4,3.6,8.6l-0.2,9.7c1.1,0.2,1.9,1,2.3,2c0.8,3-2.4,6.8-3.9,9.3c-1.3,2.2-6.5,8.3-6.5,8.4c0,0.4,0.2,0.9,0.4,1.2
	c5.5,7.6,17.2,6.7,24,12.5c9.6-15.1,14.3-35.5,13-61.8c-13.7,1.3-29.6-4-47.3-15.2C40.5,21.3,24.7,24.8,8.6,24
	c-0.7,27.1,4,47.6,13.3,62.4c6.8-5.7,18.4-4.8,23.9-12.4c0.4-0.6,0.6-0.9,0.6-1.2S40.4,65.4,39.9,64.5L39.9,64.5z"/>
</svg>
