<svg id="Layer_1" data-name="Layer 1" xmlns="http://www.w3.org/2000/svg" viewBox="0 0 150.08 108.57"><defs><style>.cls-1,.cls-2{fill:#fff;}.cls-2{fill-rule:evenodd;}</style></defs><path class="cls-1" d="M100.77,54.15A7.18,7.18,0,0,0,98,53.58,6.88,6.88,0,0,0,93.78,55,22.7,22.7,0,0,1,80,59.67c-11.21,0-20.21-6.62-22.12-17.27L43.68,43c2.28,17.72,17,30.2,35.23,30.7a36.77,36.77,0,0,0,23.32-7.47A7.06,7.06,0,0,0,100.77,54.15Zm-22.53-40a22.74,22.74,0,0,1,15.55,4.62A7,7,0,0,0,102.2,7.48,36.62,36.62,0,0,0,80,0C61.22,0,46.06,12.42,43.68,30.49l14.15.73C59.67,21.19,67.88,14.91,78.24,14.15Z"/><path class="cls-2" d="M64.39,43.62c1.51,3.58,3.5,5.38,8,5.07H91c1.63,0,1.83-4.8,0-5l-16.34-.19c-1.78,0-1.83-4.3,0-4.29l14.81.19c1.75,0,1.93-4.6,0-4.66-2.72,0-12.09-.18-14.81-.18-1.72.22-1.94-3.75,0-3.65l16.6.2c1.32-.11,1.79-2.44,1.18-4s-2-1.35-3.17-1.43l-18-.58c-3.25.09-5.89,1.46-7,5.55a16.38,16.38,0,0,0-.39,2.49L36.54,31.67c-1.62-.09-2.94,2-2.94,4.53v.57c0,2.81,1.49,5.17,3.31,5.1l26.9-1.24a11.17,11.17,0,0,0,.58,3Z"/><path class="cls-1" d="M10.48,103.19a11.38,11.38,0,0,1-4.18-.76A9.83,9.83,0,0,1,3,100.29,9.63,9.63,0,0,1,.79,97.06a10.88,10.88,0,0,1,0-8.14A9.65,9.65,0,0,1,3,85.69a10.12,10.12,0,0,1,3.34-2.14,11.38,11.38,0,0,1,4.18-.76,11.6,11.6,0,0,1,4.1.73A8.41,8.41,0,0,1,17.09,85a1,1,0,0,1,.06,1.43h0a1,1,0,0,1-1.28.07,7.13,7.13,0,0,0-2.09-1.24,9.18,9.18,0,0,0-3.21-.56,9,9,0,0,0-3.35.62,8.11,8.11,0,0,0-4.48,4.38,8.75,8.75,0,0,0,0,6.62,8.11,8.11,0,0,0,4.48,4.38,9,9,0,0,0,3.35.62,8.75,8.75,0,0,0,3.21-.58,7.17,7.17,0,0,0,2.08-1.24,1,1,0,0,1,1.29.06h0a1,1,0,0,1-.06,1.43,8.44,8.44,0,0,1-2.48,1.47A11.26,11.26,0,0,1,10.48,103.19Z"/><path class="cls-1" d="M27.41,103.16a7.69,7.69,0,0,1-3.92-1,7.16,7.16,0,0,1-2.72-2.74,8.29,8.29,0,0,1,0-7.93,7.17,7.17,0,0,1,2.72-2.69,7.78,7.78,0,0,1,3.92-1,7.88,7.88,0,0,1,4,1,7.31,7.31,0,0,1,2.72,2.69,7.77,7.77,0,0,1,1,4,7.88,7.88,0,0,1-1,4,7.16,7.16,0,0,1-2.74,2.72A7.85,7.85,0,0,1,27.41,103.16Zm0-1.81a5.62,5.62,0,0,0,2.89-.73,5.13,5.13,0,0,0,2-2.06,6.88,6.88,0,0,0,0-6.17,5.23,5.23,0,0,0-2-2,6,6,0,0,0-5.73,0,5.4,5.4,0,0,0-2,2,6.8,6.8,0,0,0,0,6.17,5.33,5.33,0,0,0,2,2.06A5.5,5.5,0,0,0,27.41,101.35Z"/><path class="cls-1" d="M39.24,102.05V88.94a1,1,0,0,1,1-1h0a1,1,0,0,1,1,1v3.13l-.2-.71a4.9,4.9,0,0,1,2.12-2.62,6.43,6.43,0,0,1,2.61-.85,1,1,0,0,1,1.08,1v1h-.23l-.23,0a4.82,4.82,0,0,0-3.72,1.45,5.78,5.78,0,0,0-1.35,4.11v6.71a1,1,0,0,1-1,1H40.2A1,1,0,0,1,39.24,102.05Z"/><path class="cls-1" d="M50.49,107.61V88.94a1,1,0,0,1,1-1h0a1,1,0,0,1,1,1v3.6l-.19,2.89a.43.43,0,0,0,0,.16l.27,2.91a.28.28,0,0,1,0,.09v9a1,1,0,0,1-1,1h-.1A1,1,0,0,1,50.49,107.61Zm7.77-4.45a7,7,0,0,1-3.53-.9,6.56,6.56,0,0,1-2.5-2.61,8.62,8.62,0,0,1-.93-4.17,8.74,8.74,0,0,1,.91-4.17,6.35,6.35,0,0,1,2.49-2.59,7.18,7.18,0,0,1,3.56-.89,7.72,7.72,0,0,1,3.85,1,7,7,0,0,1,2.68,2.7,8.73,8.73,0,0,1,0,8,7,7,0,0,1-2.68,2.69A7.63,7.63,0,0,1,58.26,103.16Zm-.15-1.81a5.6,5.6,0,0,0,2.87-.73,5.22,5.22,0,0,0,2-2.06,6.16,6.16,0,0,0,.75-3.08A6.09,6.09,0,0,0,63,92.42a5.35,5.35,0,0,0-2-2.06,5.51,5.51,0,0,0-2.87-.75,5.57,5.57,0,0,0-2.88.75,5.35,5.35,0,0,0-2,2.06,6.18,6.18,0,0,0-.73,3.06,6.26,6.26,0,0,0,.73,3.08,5.22,5.22,0,0,0,2,2.06A5.66,5.66,0,0,0,58.11,101.35Z"/><path class="cls-1" d="M76,103.16a7.69,7.69,0,0,1-3.92-1,7.23,7.23,0,0,1-2.72-2.74,8.36,8.36,0,0,1,0-7.93,7.24,7.24,0,0,1,2.72-2.69,7.78,7.78,0,0,1,3.92-1,7.88,7.88,0,0,1,4,1,7.31,7.31,0,0,1,2.72,2.69,7.77,7.77,0,0,1,1,4,7.88,7.88,0,0,1-1,4A7.16,7.16,0,0,1,80,102.17,7.85,7.85,0,0,1,76,103.16Zm0-1.81a5.68,5.68,0,0,0,2.9-.73,5.2,5.2,0,0,0,2-2.06,6.88,6.88,0,0,0,0-6.17,5.3,5.3,0,0,0-2-2,5.62,5.62,0,0,0-2.87-.73,5.56,5.56,0,0,0-2.86.73,5.42,5.42,0,0,0-2,2,6.8,6.8,0,0,0,0,6.17,5.33,5.33,0,0,0,2,2.06A5.5,5.5,0,0,0,76,101.35Z"/><path class="cls-1" d="M103.13,99.56v2.49a1,1,0,0,1-.95,1H88a1,1,0,0,1-1-1V83.93a1,1,0,0,1,1-1h13.78a1,1,0,0,1,1,1v2.48a1,1,0,0,1-1,1H93.62a1,1,0,0,0-1,1v1.41a1,1,0,0,0,1,1h7a1,1,0,0,1,1,1V94a1,1,0,0,1-1,1h-7a1,1,0,0,0-1,1v1.74a1,1,0,0,0,1,1h8.57A1,1,0,0,1,103.13,99.56Z"/><path class="cls-1" d="M110.87,103.27a7.18,7.18,0,0,1-3.14-.63,4.56,4.56,0,0,1-2-1.72,4.44,4.44,0,0,1-.68-2.4,4.3,4.3,0,0,1,.73-2.49,4.53,4.53,0,0,1,2.27-1.62,11.61,11.61,0,0,1,3.91-.56h2.7a1,1,0,0,1,1,1v.94a1,1,0,0,1-1,1h-2a3.25,3.25,0,0,0-1.85.4,1.37,1.37,0,0,0-.53,1.15,1.4,1.4,0,0,0,.55,1.13,2.27,2.27,0,0,0,1.49.45,3,3,0,0,0,1.64-.45,2.43,2.43,0,0,0,1-1.36l.63,1.69a1,1,0,0,1,0,.64,4,4,0,0,1-1.58,2.1A5.92,5.92,0,0,1,110.87,103.27Zm5.55-.26a1,1,0,0,1-1-1v-1.93l-.37-.71V94.08a2.51,2.51,0,0,0-.79-2,3.68,3.68,0,0,0-2.5-.7,8,8,0,0,0-3.38.81,1,1,0,0,1-1.32-.43l-1-1.92a1,1,0,0,1,.43-1.29,11.87,11.87,0,0,1,2.34-.87,14.6,14.6,0,0,1,3.68-.49A8.89,8.89,0,0,1,118.45,89q2.07,1.76,2.07,5.44v7.66a1,1,0,0,1-1,1Z"/><path class="cls-1" d="M122.33,91.17V89a1,1,0,0,1,1-1h9.33a1,1,0,0,1,1,1v2.14a1,1,0,0,1-1,1h-9.33A1,1,0,0,1,122.33,91.17Zm8.56,12.1a6.76,6.76,0,0,1-4.64-1.47,5.66,5.66,0,0,1-1.66-4.46V85a1,1,0,0,1,1-1h3.52a1,1,0,0,1,1,1v12.3a1.86,1.86,0,0,0,.44,1.34,1.58,1.58,0,0,0,1.19.46,3.19,3.19,0,0,0,.89-.12,1,1,0,0,1,1.14.63l.72,2a1,1,0,0,1-.5,1.21,6.46,6.46,0,0,1-.94.29A10,10,0,0,1,130.89,103.27Z"/><path class="cls-1" d="M142.4,103.27a16,16,0,0,1-3.85-.46,13,13,0,0,1-2.18-.71,1,1,0,0,1-.48-1.26l.84-2A.94.94,0,0,1,138,98.4a11.84,11.84,0,0,0,1.71.6,10.68,10.68,0,0,0,2.86.41,4.23,4.23,0,0,0,1.91-.3.94.94,0,0,0,.53-.82.71.71,0,0,0-.49-.66,4.52,4.52,0,0,0-1.31-.33l-1.79-.23a14.34,14.34,0,0,1-2-.4,7.05,7.05,0,0,1-1.82-.76,3.64,3.64,0,0,1-1.3-1.34,4.45,4.45,0,0,1-.49-2.18,4.31,4.31,0,0,1,.88-2.65,5.91,5.91,0,0,1,2.55-1.85,10.85,10.85,0,0,1,4.14-.69,16.31,16.31,0,0,1,3.3.35,11.32,11.32,0,0,1,1.93.57,1,1,0,0,1,.52,1.29l-.85,1.92a1,1,0,0,1-1.27.49,6.6,6.6,0,0,0-1.43-.46,11.18,11.18,0,0,0-2.15-.23,4.64,4.64,0,0,0-2,.3c-.39.2-.59.45-.59.76a.77.77,0,0,0,.52.7,4.76,4.76,0,0,0,1.32.37c.53.09,1.13.17,1.79.26a14.77,14.77,0,0,1,2,.39,6.11,6.11,0,0,1,1.77.76A3.91,3.91,0,0,1,149.58,96a4.3,4.3,0,0,1,.5,2.19,4.15,4.15,0,0,1-.86,2.55,5.68,5.68,0,0,1-2.58,1.83A11.4,11.4,0,0,1,142.4,103.27Z"/></svg>