<svg id="Layer_1" data-name="Layer 1" xmlns="http://www.w3.org/2000/svg" viewBox="0 0 199.39 43.41"><defs><style>.cls-1,.cls-2{fill:#ee445b;}.cls-2{fill-rule:evenodd;}</style></defs><path class="cls-1" d="M39.54,31.87a4.3,4.3,0,0,0-1.65-.33,4,4,0,0,0-2.46.83,13.43,13.43,0,0,1-8.15,2.75c-6.59,0-11.9-3.89-13-10.16l-8.32.38c1.33,10.43,10,17.77,20.73,18.07A21.62,21.62,0,0,0,40.39,39,4.16,4.16,0,0,0,39.54,31.87ZM26.27,8.33a13.38,13.38,0,0,1,9.16,2.72,4.15,4.15,0,0,0,5-6.65A21.61,21.61,0,0,0,27.28,0c-11,0-20,7.31-21.34,18l8.32.43C15.34,12.47,20.18,8.77,26.27,8.33Z"/><path class="cls-2" d="M18.12,25.68c.89,2.1,2.06,3.16,4.74,3H33.77c1,0,1.08-2.82,0-3l-9.61-.11c-1.05,0-1.08-2.53,0-2.53l8.71.11c1,0,1.14-2.7,0-2.74-1.6,0-7.11-.11-8.71-.11-1,.14-1.15-2.2,0-2.14l9.77.11c.78-.06,1-1.43.69-2.37s-1.19-.79-1.86-.84l-10.62-.34A4,4,0,0,0,18,18a9.4,9.4,0,0,0-.24,1.46l-16-.83C.78,18.59,0,19.84,0,21.31v.33c0,1.66.88,3.05,2,3l15.83-.73a7.25,7.25,0,0,0,.34,1.76Z"/><path class="cls-1" d="M60.77,32a11.26,11.26,0,0,1-4.15-.75A9.68,9.68,0,0,1,51.15,26a10.73,10.73,0,0,1,0-8.08,9.64,9.64,0,0,1,2.19-3.21,9.94,9.94,0,0,1,3.31-2.12,11.22,11.22,0,0,1,4.15-.76,11.43,11.43,0,0,1,4.07.73A8.13,8.13,0,0,1,67.33,14a1,1,0,0,1,.06,1.43h0a1,1,0,0,1-1.27.06,7,7,0,0,0-2.07-1.22,9,9,0,0,0-3.19-.56,9.12,9.12,0,0,0-3.33.61A8,8,0,0,0,54.86,16a8.32,8.32,0,0,0,0,11.8,7.84,7.84,0,0,0,2.67,1.73,8.92,8.92,0,0,0,3.33.62,8.81,8.81,0,0,0,3.19-.57,7.64,7.64,0,0,0,2.07-1.24,1,1,0,0,1,1.27.06h0a1,1,0,0,1-.06,1.41,8.18,8.18,0,0,1-2.46,1.46A11.1,11.1,0,0,1,60.77,32Z"/><path class="cls-1" d="M77.58,32a7.58,7.58,0,0,1-3.89-1A7.27,7.27,0,0,1,71,28.31a7.81,7.81,0,0,1-1-3.93,7.75,7.75,0,0,1,1-3.95,7.16,7.16,0,0,1,2.71-2.67,7.67,7.67,0,0,1,3.89-1,7.86,7.86,0,0,1,3.94,1,7.14,7.14,0,0,1,2.7,2.67,7.68,7.68,0,0,1,1,3.94,7.73,7.73,0,0,1-1,3.94A7,7,0,0,1,81.51,31,7.81,7.81,0,0,1,77.58,32Zm0-1.8a5.7,5.7,0,0,0,2.88-.72,5.25,5.25,0,0,0,2-2,6.18,6.18,0,0,0,.73-3.06,6.17,6.17,0,0,0-.73-3.07,5.2,5.2,0,0,0-2-2,5.55,5.55,0,0,0-2.85-.73,5.49,5.49,0,0,0-2.84.73,5.25,5.25,0,0,0-2,2A6.07,6.07,0,0,0,72,24.38a6.08,6.08,0,0,0,.74,3.06,5.4,5.4,0,0,0,2,2A5.54,5.54,0,0,0,77.58,30.21Z"/><path class="cls-1" d="M89.33,30.91v-13a1,1,0,0,1,1-1h0a1,1,0,0,1,1,1V21l-.2-.71a4.88,4.88,0,0,1,2.11-2.6,6.19,6.19,0,0,1,2.6-.84,1,1,0,0,1,1.07,1v.94h-.23l-.23,0a4.82,4.82,0,0,0-3.7,1.44,5.78,5.78,0,0,0-1.33,4.08v6.67a1,1,0,0,1-1,.95h-.1A1,1,0,0,1,89.33,30.91Z"/><path class="cls-1" d="M100.51,36.42V17.89a1,1,0,0,1,.95-1h0a1,1,0,0,1,1,1v3.57l-.19,2.88a.38.38,0,0,0,0,.15l.27,2.89v9a1,1,0,0,1-1,1h-.11A1,1,0,0,1,100.51,36.42Zm7.7-4.41a6.91,6.91,0,0,1-3.5-.9,6.45,6.45,0,0,1-2.48-2.59,8.5,8.5,0,0,1-.93-4.14,8.62,8.62,0,0,1,.91-4.14,6.34,6.34,0,0,1,2.48-2.57,7,7,0,0,1,3.52-.88,7.74,7.74,0,0,1,3.83.95,6.92,6.92,0,0,1,2.66,2.68,8,8,0,0,1,1,4,8,8,0,0,1-1,4A7.1,7.1,0,0,1,112,31,7.65,7.65,0,0,1,108.21,32Zm-.14-1.8a5.58,5.58,0,0,0,2.84-.72,5.4,5.4,0,0,0,2-2,6.18,6.18,0,0,0,.73-3.06,6.11,6.11,0,0,0-.73-3,5.41,5.41,0,0,0-4.84-2.79,5.62,5.62,0,0,0-2.86.74,5.44,5.44,0,0,0-2,2.05,6.21,6.21,0,0,0-.72,3,6.29,6.29,0,0,0,.72,3.06,5.3,5.3,0,0,0,2,2A5.71,5.71,0,0,0,108.07,30.21Z"/><path class="cls-1" d="M125.87,32A7.6,7.6,0,0,1,122,31a7.17,7.17,0,0,1-2.7-2.71,7.71,7.71,0,0,1-1-3.93,7.66,7.66,0,0,1,1-3.95,7.07,7.07,0,0,1,2.7-2.67,7.69,7.69,0,0,1,3.89-1,7.83,7.83,0,0,1,3.94,1,7.14,7.14,0,0,1,2.7,2.67,7.69,7.69,0,0,1,1,3.94,7.74,7.74,0,0,1-1,3.94A7,7,0,0,1,129.8,31,7.81,7.81,0,0,1,125.87,32Zm0-1.8a5.7,5.7,0,0,0,2.88-.72,5.25,5.25,0,0,0,2-2,6.18,6.18,0,0,0,.73-3.06,6.17,6.17,0,0,0-.73-3.07,5.2,5.2,0,0,0-2-2,5.55,5.55,0,0,0-2.85-.73,5.49,5.49,0,0,0-2.84.73,5.25,5.25,0,0,0-2,2,6.07,6.07,0,0,0-.74,3.07,6.08,6.08,0,0,0,.74,3.06,5.4,5.4,0,0,0,2,2A5.54,5.54,0,0,0,125.87,30.21Z"/><path class="cls-1" d="M152.78,28.43v2.48a1,1,0,0,1-.95.95H137.78a1,1,0,0,1-.95-.95v-18a.94.94,0,0,1,.95-.95h13.68a1,1,0,0,1,.95.95v2.47a1,1,0,0,1-.95,1h-8.13a1,1,0,0,0-1,1v1.4a1,1,0,0,0,1,1h6.93a1,1,0,0,1,1,1v2.27a1,1,0,0,1-.95.95h-6.94a1,1,0,0,0-1,1v1.73a1,1,0,0,0,.95.95h8.51A1,1,0,0,1,152.78,28.43Z"/><path class="cls-1" d="M160.46,32.12a7.09,7.09,0,0,1-3.12-.63,4.55,4.55,0,0,1-2-1.7,4.42,4.42,0,0,1-.67-2.39,4.24,4.24,0,0,1,.73-2.48,4.47,4.47,0,0,1,2.24-1.6,11.52,11.52,0,0,1,3.89-.56h2.68a1,1,0,0,1,1,1v.93a1,1,0,0,1-1,1h-1.94a3.2,3.2,0,0,0-1.84.39,1.36,1.36,0,0,0-.53,1.14,1.41,1.41,0,0,0,.55,1.13,2.26,2.26,0,0,0,1.47.44,3.12,3.12,0,0,0,1.64-.44,2.5,2.5,0,0,0,1-1.36l.62,1.68a.94.94,0,0,1,0,.64,3.9,3.9,0,0,1-1.57,2.08A5.84,5.84,0,0,1,160.46,32.12Zm5.5-.26a1,1,0,0,1-1-.95V29l-.37-.71V23a2.53,2.53,0,0,0-.78-2,3.74,3.74,0,0,0-2.49-.69,7.22,7.22,0,0,0-2.26.37,7.42,7.42,0,0,0-1.1.43,1,1,0,0,1-1.31-.42l-.94-1.91a1,1,0,0,1,.43-1.28,11.08,11.08,0,0,1,2.32-.86,14.37,14.37,0,0,1,3.65-.49A8.77,8.77,0,0,1,168,17.9Q170,19.64,170,23.3v7.61a1,1,0,0,1-1,.95Z"/><path class="cls-1" d="M171.83,20.1V18a1,1,0,0,1,1-.95h9.26a1,1,0,0,1,1,.95V20.1a1,1,0,0,1-1,1h-9.26A1,1,0,0,1,171.83,20.1Zm8.51,12a6.68,6.68,0,0,1-4.61-1.47,5.6,5.6,0,0,1-1.65-4.42V13.94a1,1,0,0,1,1-1h3.49a1,1,0,0,1,.95,1V26.15a1.85,1.85,0,0,0,.44,1.33,1.56,1.56,0,0,0,1.18.46,3.19,3.19,0,0,0,.89-.12.94.94,0,0,1,1.12.62l.72,2a.94.94,0,0,1-.5,1.2,6.32,6.32,0,0,1-.93.29A9.86,9.86,0,0,1,180.34,32.12Z"/><path class="cls-1" d="M191.77,32.12a15.81,15.81,0,0,1-3.83-.46,12.72,12.72,0,0,1-2.16-.71,1,1,0,0,1-.48-1.25l.83-1.93a1,1,0,0,1,1.27-.49,12.53,12.53,0,0,0,1.7.6,10.46,10.46,0,0,0,2.84.4,4.16,4.16,0,0,0,1.89-.3.91.91,0,0,0,.53-.81.71.71,0,0,0-.49-.65,4.44,4.44,0,0,0-1.3-.33L190.79,26a14.07,14.07,0,0,1-1.95-.4,7.33,7.33,0,0,1-1.81-.75,3.54,3.54,0,0,1-1.29-1.34,4.37,4.37,0,0,1-.48-2.16,4.32,4.32,0,0,1,.86-2.63,5.82,5.82,0,0,1,2.54-1.83,10.67,10.67,0,0,1,4.1-.69,16.14,16.14,0,0,1,3.29.35,10.62,10.62,0,0,1,1.92.56,1,1,0,0,1,.51,1.28l-.84,1.92a1,1,0,0,1-1.27.48,6.36,6.36,0,0,0-1.42-.46,10.9,10.9,0,0,0-2.13-.23,4.59,4.59,0,0,0-1.95.3c-.39.2-.58.45-.58.75a.75.75,0,0,0,.51.7,5.17,5.17,0,0,0,1.31.37l1.78.26a14.91,14.91,0,0,1,2,.38,6.44,6.44,0,0,1,1.76.75,3.94,3.94,0,0,1,1.29,1.34,4.22,4.22,0,0,1,.5,2.17,4.13,4.13,0,0,1-.85,2.54A5.88,5.88,0,0,1,196,31.44,11.49,11.49,0,0,1,191.77,32.12Z"/></svg>